<svg width="18" height="18" viewBox="0 0 18 18" fill="none" xmlns="http://www.w3.org/2000/svg">
<path d="M17 9.5C17 13.6421 13.6421 17 9.5 17C5.35786 17 2 13.6421 2 9.5C2 5.35786 5.35786 2 9.5 2C13.6421 2 17 5.35786 17 9.5Z" fill="#9C9C9C"/>
<path d="M12.1228 11.9442C12.4371 12.049 12.7769 11.8791 12.8817 11.5647C12.9865 11.2504 12.8166 10.9106 12.5022 10.8058L12.3125 11.375L12.1228 11.9442ZM9.5 10.4375H8.9C8.9 10.6958 9.06526 10.925 9.31026 11.0067L9.5 10.4375ZM10.1 6.51739C10.1 6.18602 9.83137 5.91739 9.5 5.91739C9.16863 5.91739 8.9 6.18602 8.9 6.51739H9.5H10.1ZM12.3125 11.375L12.5022 10.8058L9.68974 9.86829L9.5 10.4375L9.31026 11.0067L12.1228 11.9442L12.3125 11.375ZM9.5 10.4375H10.1V6.51739H9.5H8.9V10.4375H9.5ZM17 9.5H16.4C16.4 13.3108 13.3108 16.4 9.5 16.4V17V17.6C13.9735 17.6 17.6 13.9735 17.6 9.5H17ZM9.5 17V16.4C5.68924 16.4 2.6 13.3108 2.6 9.5H2H1.4C1.4 13.9735 5.02649 17.6 9.5 17.6V17ZM2 9.5H2.6C2.6 5.68924 5.68924 2.6 9.5 2.6V2V1.4C5.02649 1.4 1.4 5.02649 1.4 9.5H2ZM9.5 2V2.6C13.3108 2.6 16.4 5.68924 16.4 9.5H17H17.6C17.6 5.02649 13.9735 1.4 9.5 1.4V2Z" fill="white"/>
</svg>
