<svg width="44" height="44" viewBox="0 0 44 44" fill="none" xmlns="http://www.w3.org/2000/svg">
<rect x="0.5" y="0.5" width="43" height="43" rx="21.5" fill="white"/>
<rect x="0.5" y="0.5" width="43" height="43" rx="21.5" stroke="#B2F0A6"/>
<path d="M20 27.53V16.47C20 15.42 19.7765 15 19.2118 15H17.7882C17.2235 15 17 15.42 17 16.47V27.53C17 28.58 17.2235 29 17.7882 29H19.2118C19.7765 29 20 28.58 20 27.53Z" fill="#39BA28"/>
<path d="M27 27.53V16.47C27 15.42 26.7765 15 26.2118 15H24.7882C24.2275 15 24 15.42 24 16.47V27.53C24 28.58 24.2235 29 24.7882 29H26.2118C26.7765 29 27 28.58 27 27.53Z" fill="#39BA28"/>
</svg>
