<svg width="22" height="22" viewBox="0 0 22 22" fill="none" xmlns="http://www.w3.org/2000/svg">
<path d="M14.6418 8.41901C14.9347 8.12612 14.9347 7.65125 14.6418 7.35835C14.3489 7.06546 13.874 7.06546 13.5811 7.35835L14.1115 7.88868L14.6418 8.41901ZM7.35859 13.5809C7.0657 13.8738 7.0657 14.3487 7.35859 14.6416C7.65149 14.9344 8.12636 14.9344 8.41925 14.6416L7.88892 14.1112L7.35859 13.5809ZM13.5811 14.6416C13.874 14.9344 14.3489 14.9344 14.6418 14.6416C14.9347 14.3487 14.9347 13.8738 14.6418 13.5809L14.1115 14.1112L13.5811 14.6416ZM8.41925 7.35835C8.12636 7.06546 7.65149 7.06546 7.35859 7.35835C7.0657 7.65124 7.0657 8.12612 7.35859 8.41901L7.88892 7.88868L8.41925 7.35835ZM19.8002 11H19.0502C19.0502 15.4458 15.4461 19.0499 11.0002 19.0499V19.7999V20.5499C16.2745 20.5499 20.5502 16.2743 20.5502 11H19.8002ZM11.0002 19.7999V19.0499C6.5543 19.0499 2.9502 15.4458 2.9502 11H2.2002H1.4502C1.4502 16.2743 5.72588 20.5499 11.0002 20.5499V19.7999ZM2.2002 11H2.9502C2.9502 6.55406 6.5543 2.94995 11.0002 2.94995V2.19995V1.44995C5.72588 1.44995 1.4502 5.72563 1.4502 11H2.2002ZM11.0002 2.19995V2.94995C15.4461 2.94995 19.0502 6.55406 19.0502 11H19.8002H20.5502C20.5502 5.72563 16.2745 1.44995 11.0002 1.44995V2.19995ZM14.1115 7.88868L13.5811 7.35835L10.4699 10.4696L11.0002 11L11.5305 11.5303L14.6418 8.41901L14.1115 7.88868ZM11.0002 11L10.4699 10.4696L7.35859 13.5809L7.88892 14.1112L8.41925 14.6416L11.5305 11.5303L11.0002 11ZM14.1115 14.1112L14.6418 13.5809L11.5305 10.4696L11.0002 11L10.4699 11.5303L13.5811 14.6416L14.1115 14.1112ZM11.0002 11L11.5305 10.4696L8.41925 7.35835L7.88892 7.88868L7.35859 8.41901L10.4699 11.5303L11.0002 11Z" fill="#171717"/>
</svg>
