<svg width="16" height="16" viewBox="0 0 16 16" fill="none" xmlns="http://www.w3.org/2000/svg">
<path d="M12.2996 0.600006C13.7908 0.600006 14.9996 1.80884 14.9996 3.30001L14.9996 12.3001C14.9996 13.7913 13.7908 15.0001 12.2996 15.0001H3.29961C1.80844 15.0001 0.599609 13.7913 0.599609 12.3001L0.599609 3.30001C0.599609 1.80884 1.80844 0.600007 3.29961 0.600007L12.2996 0.600006Z" fill="#9C9C9C"/>
<path d="M7.79961 7.80009L7.79961 11.4001M7.79961 5.13173V5.10009M0.599609 12.3001L0.599609 3.30001C0.599609 1.80884 1.80844 0.600007 3.29961 0.600007L12.2996 0.600006C13.7908 0.600006 14.9996 1.80884 14.9996 3.30001L14.9996 12.3001C14.9996 13.7913 13.7908 15.0001 12.2996 15.0001H3.29961C1.80844 15.0001 0.599609 13.7913 0.599609 12.3001Z" stroke="white" stroke-width="1.2" stroke-linecap="round" stroke-linejoin="round"/>
</svg>
