<svg width="13" height="13" viewBox="0 0 13 13" fill="none" xmlns="http://www.w3.org/2000/svg">
<path d="M6.49964 11.6999C4.34919 11.6999 2.59961 10.0521 2.59961 8.02673C2.59961 5.19993 6.49967 1.29993 6.49967 1.29993C6.49967 1.29993 10.3996 5.19993 10.3996 8.02673C10.3996 10.0522 8.65008 11.6999 6.49964 11.6999Z" fill="white"/>
<path d="M8.44961 7.79993C8.15939 8.70797 7.42996 9.43404 6.49961 9.74993M6.49964 11.6999C4.34919 11.6999 2.59961 10.0521 2.59961 8.02673C2.59961 5.19993 6.49967 1.29993 6.49967 1.29993C6.49967 1.29993 10.3996 5.19993 10.3996 8.02673C10.3996 10.0522 8.65008 11.6999 6.49964 11.6999Z" stroke="#171717" stroke-linecap="round" stroke-linejoin="round"/>
</svg>
