<svg width="22" height="22" viewBox="0 0 22 22" fill="none" xmlns="http://www.w3.org/2000/svg">
<path d="M2.16421 4.39997L17.4767 19.8647M2.16421 4.39997C2.73393 3.72712 3.58487 3.29998 4.53557 3.29998H9.71204M2.16421 4.39997C1.70599 4.94113 1.42969 5.64123 1.42969 6.40586V17.7941C1.42969 19.5094 2.82024 20.9 4.53557 20.9H15.9238C17.6391 20.9 19.0297 19.5094 19.0297 17.7941V13.1353M9.71204 13.1353L2.98263 19.8647M17.0497 4.61997V4.5538M20.5697 4.54345C20.5697 6.8391 17.0497 9.89997 17.0497 9.89997C17.0497 9.89997 13.5297 6.8391 13.5297 4.54345C13.5297 2.64167 15.1056 1.09998 17.0497 1.09998C18.9937 1.09998 20.5697 2.64167 20.5697 4.54345Z" stroke="#00D281" stroke-width="2" stroke-linecap="round" stroke-linejoin="round"/>
</svg>
