<svg width="48" height="48" viewBox="0 0 48 48" fill="none" xmlns="http://www.w3.org/2000/svg">
<path d="M35.1914 22.916C41.3012 22.916 46.2539 27.8687 46.2539 33.9785C46.2537 40.0881 41.3011 45.041 35.1914 45.041C29.0819 45.0408 24.1291 40.088 24.1289 33.9785C24.1289 27.8688 29.0817 22.9161 35.1914 22.916ZM35.1973 27.3398C34.7174 27.3399 34.3281 27.729 34.3281 28.2089V33.1103H29.4287C28.9487 33.1103 28.5596 33.4995 28.5596 33.9794C28.56 34.4589 28.9483 34.8483 29.4277 34.8486H34.3281V39.746C34.3284 40.2257 34.7176 40.615 35.1973 40.6152C35.677 40.6152 36.0661 40.2257 36.0664 39.746V34.8486H40.9648C41.4446 34.8486 41.8345 34.459 41.835 33.9794C41.835 33.4996 41.4456 33.1106 40.9658 33.1103H36.0664V28.2089C36.0664 27.729 35.6772 27.3398 35.1973 27.3398ZM32.0908 3.00189C35.0996 3.00216 37.4004 5.30355 37.4004 8.31244V20.8876C36.6816 20.7672 35.9434 20.7031 35.1904 20.7031C34.7416 20.7031 34.2977 20.725 33.8604 20.7685V8.31244C33.8604 7.31678 33.238 6.6314 32.2852 6.54974L32.0908 6.54193H7.31055L7.11523 6.54974C6.16234 6.6314 5.54004 7.31677 5.54004 8.31244V20.5253L8.90332 17.162C10.8503 15.2153 14.2129 15.2154 16.3369 17.162L21.4707 22.2949L23.0635 20.7021C25.0105 18.7552 28.3741 18.7551 30.498 20.7021L31.1309 21.3349C25.7846 23.05 21.9151 28.0626 21.915 33.9785C21.915 35.5296 22.1819 37.0185 22.6709 38.4023H7.31055L7.03027 38.3964C4.25236 38.2631 2.14051 36.1508 2.00684 33.373L2 33.0927V8.31244C2 5.39736 4.15955 3.14648 7.03027 3.00873L7.31055 3.00189H32.0908Z" fill="#9C9C9C"/>
</svg>
