<svg width="24" height="24" viewBox="0 0 24 24" fill="none" xmlns="http://www.w3.org/2000/svg">
<path d="M20.3906 4C20.8048 4.00003 21.1406 4.3358 21.1406 4.75V10.5781C21.1406 10.9923 20.8048 11.3281 20.3906 11.3281H18.3506V12.5215C18.3505 12.599 18.3354 12.6728 18.3135 12.7432H19.3213C20.84 12.7433 22.0713 13.9745 22.0713 15.4932V16.3877C22.0715 16.3942 22.0723 16.4007 22.0723 16.4072V20.293C22.0723 20.7072 21.7365 21.043 21.3223 21.043C20.9081 21.043 20.5723 20.7072 20.5723 20.293V17.1572H3.46484V20.293C3.46483 20.7072 3.12905 21.043 2.71484 21.043C2.30064 21.043 1.96486 20.7072 1.96484 20.293V15.4932C1.96484 13.9744 3.19606 12.7432 4.71484 12.7432H5.72363C5.70173 12.6728 5.68657 12.599 5.68652 12.5215V11.3281H3.64551C3.23129 11.3281 2.89551 10.9923 2.89551 10.5781V4.75C2.89551 4.33579 3.23129 4 3.64551 4H20.3906ZM4.71484 14.2432C4.02449 14.2432 3.46484 14.8028 3.46484 15.4932V15.6572H20.5713V15.4932C20.5713 14.8029 20.0115 14.2433 19.3213 14.2432H4.71484ZM7.18652 12.5215C7.18647 12.599 7.17132 12.6728 7.14941 12.7432H16.8877C16.8658 12.6728 16.8506 12.599 16.8506 12.5215V11.3281H7.18652V12.5215ZM4.39551 9.82812H19.6406V5.5H4.39551V9.82812Z" fill="#555555"/>
</svg>
