<svg width="20" height="20" viewBox="0 0 20 20" fill="none" xmlns="http://www.w3.org/2000/svg">
<path d="M9.20703 2.79296H4.20703C2.55018 2.79296 1.20703 4.13611 1.20703 5.79296V15.7931C1.20703 17.4499 2.55018 18.7931 4.20703 18.7931H14.207C15.8639 18.7931 17.207 17.4499 17.207 15.7931L17.207 10.793M6.20703 13.793L9.84535 13.0599C10.0385 13.0209 10.2158 12.9258 10.3551 12.7865L18.4999 4.63728C18.8904 4.24657 18.8901 3.61324 18.4993 3.22286L16.7739 1.49946C16.3833 1.10924 15.7502 1.10951 15.3599 1.50006L7.21433 9.6501C7.07532 9.78919 6.9804 9.96617 6.94145 10.1589L6.20703 13.793Z" stroke="#171717" stroke-width="1.5" stroke-linecap="round" stroke-linejoin="round"/>
</svg>
