<svg width="24" height="24" viewBox="0 0 24 24" fill="none" xmlns="http://www.w3.org/2000/svg">
<path d="M7.20039 6.11999V6.86999C7.46714 6.86999 7.71382 6.72831 7.84822 6.49789L7.20039 6.11999ZM8.88039 3.23999V2.48999C8.61364 2.48999 8.36696 2.63167 8.23256 2.86209L8.88039 3.23999ZM15.1204 3.23999L15.7682 2.86209C15.6338 2.63167 15.3871 2.48999 15.1204 2.48999V3.23999ZM16.8004 6.11999L16.1526 6.49789C16.287 6.72831 16.5336 6.86999 16.8004 6.86999V6.11999ZM2.40039 18.36H3.15039V8.51999H2.40039H1.65039V18.36H2.40039ZM4.80039 6.11999V6.86999H7.20039V6.11999V5.36999H4.80039V6.11999ZM7.20039 6.11999L7.84822 6.49789L9.52822 3.61789L8.88039 3.23999L8.23256 2.86209L6.55256 5.74209L7.20039 6.11999ZM8.88039 3.23999V3.98999H15.1204V3.23999V2.48999H8.88039V3.23999ZM15.1204 3.23999L14.4726 3.61789L16.1526 6.49789L16.8004 6.11999L17.4482 5.74209L15.7682 2.86209L15.1204 3.23999ZM16.8004 6.11999V6.86999H19.2004V6.11999V5.36999H16.8004V6.11999ZM21.6004 8.51999H20.8504V18.36H21.6004H22.3504V8.51999H21.6004ZM21.6004 18.36H20.8504C20.8504 19.2713 20.1117 20.01 19.2004 20.01V20.76V21.51C20.9401 21.51 22.3504 20.0997 22.3504 18.36H21.6004ZM19.2004 6.11999V6.86999C20.1117 6.86999 20.8504 7.60872 20.8504 8.51999H21.6004H22.3504C22.3504 6.78029 20.9401 5.36999 19.2004 5.36999V6.11999ZM2.40039 8.51999H3.15039C3.15039 7.60872 3.88912 6.86999 4.80039 6.86999V6.11999V5.36999C3.06069 5.36999 1.65039 6.78029 1.65039 8.51999H2.40039ZM4.80039 20.76V20.01C3.88912 20.01 3.15039 19.2713 3.15039 18.36H2.40039H1.65039C1.65039 20.0997 3.06069 21.51 4.80039 21.51V20.76ZM15.6004 12.84H14.8504C14.8504 14.414 13.5744 15.69 12.0004 15.69V16.44V17.19C14.4028 17.19 16.3504 15.2424 16.3504 12.84H15.6004ZM12.0004 16.44V15.69C10.4264 15.69 9.15039 14.414 9.15039 12.84H8.40039H7.65039C7.65039 15.2424 9.59795 17.19 12.0004 17.19V16.44ZM8.40039 12.84H9.15039C9.15039 11.266 10.4264 9.98999 12.0004 9.98999V9.23999V8.48999C9.59795 8.48999 7.65039 10.4376 7.65039 12.84H8.40039ZM12.0004 9.23999V9.98999C13.5744 9.98999 14.8504 11.266 14.8504 12.84H15.6004H16.3504C16.3504 10.4376 14.4028 8.48999 12.0004 8.48999V9.23999ZM19.2004 20.76V20.01H4.80039V20.76V21.51H19.2004V20.76Z" fill="#555555"/>
</svg>
