<svg width="24" height="24" viewBox="0 0 24 24" fill="none" xmlns="http://www.w3.org/2000/svg">
<path d="M11.8154 12.0513C12.1578 12.0199 12.4898 12.0362 12.7607 12.1128C13.0242 12.1873 13.2829 12.3172 13.5166 12.4888C14.0233 12.8609 14.4253 13.4002 14.8467 14.0396C15.2472 14.6472 15.7004 15.3992 16.3018 16.019C16.6634 16.3917 17.0906 16.7268 17.4189 17.0054C17.7698 17.3031 18.05 17.5686 18.2568 17.8706C18.74 18.5761 18.8042 19.5694 18.418 20.3413C18.0319 21.1128 17.2013 21.6635 16.333 21.7251C15.6213 21.7754 14.9619 21.5546 14.0215 21.3579C12.8587 21.1147 11.6073 21.0296 10.3809 21.2837C9.97895 21.367 9.54842 21.4963 9.21582 21.5825C8.85561 21.6759 8.54255 21.7402 8.24023 21.7495C7.21634 21.781 6.17978 21.0901 5.79492 20.1226C5.44165 19.2341 5.63328 18.1276 6.25977 17.3726C6.31124 17.3106 6.3653 17.2511 6.42188 17.1948C6.58033 17.0373 6.76408 16.892 6.9834 16.7241C7.19158 16.5648 7.44336 16.3767 7.67676 16.1665C8.1371 15.7519 8.50218 15.276 8.82031 14.8208C9.16077 14.3337 9.4036 13.9395 9.71973 13.5142C10.1037 12.9975 10.5249 12.565 11.0059 12.2964C11.248 12.1611 11.5236 12.078 11.8154 12.0513Z" stroke="#00D281" stroke-width="1.5"/>
<path d="M2.79102 9.43213C3.15506 9.10351 3.51789 9.05268 3.88281 9.14697C4.28633 9.25128 4.72136 9.5473 5.08105 9.96533C5.47534 10.4236 5.65543 10.8619 5.81348 11.2769C6.0255 11.8336 6.17178 12.3686 6.17773 12.8726C6.18537 13.5268 5.92889 14.0955 5.5166 14.3452C5.03858 14.6345 4.41271 14.6862 3.8623 14.4829C3.24343 14.2543 2.83991 13.6743 2.58398 12.9536C2.33308 12.247 2.27872 11.553 2.26074 11.3286C2.22476 10.8785 2.28748 10.5573 2.33008 10.3872C2.43143 9.98273 2.52296 9.67425 2.79102 9.43213Z" stroke="#00D281" stroke-width="1.5"/>
<path d="M20.2852 9.12952C20.616 9.06049 20.8706 9.10895 21.0537 9.24084C21.2198 9.36068 21.3685 9.58212 21.499 9.91663C21.6341 10.2628 21.7131 10.6254 21.7393 10.9928C21.8221 12.1564 21.3705 13.3497 20.542 14.1783C20.1206 14.5997 19.5741 14.6895 19.0664 14.528C18.5455 14.3621 18.1029 13.9402 17.9463 13.3776C17.7985 12.8466 17.8588 12.23 18.0752 11.6237C18.3262 10.9205 18.6752 10.2709 19.1416 9.7926L19.3496 9.59827C19.6053 9.38024 19.9496 9.19956 20.2852 9.12952Z" stroke="#00D281" stroke-width="1.5"/>
<path d="M9.37109 3.10785C9.76956 3.20036 10.133 3.53043 10.3984 4.02679C10.7924 4.76371 10.8577 5.63786 10.8076 6.62445C10.7575 7.61175 10.644 8.43756 10.1836 9.0307C9.55457 9.84063 8.3695 10.0006 7.67969 9.39496C7.59937 9.32443 7.52341 9.24401 7.45312 9.15472V9.15375C6.82983 8.36214 6.53758 7.14839 6.60059 6.23383C6.66155 5.35099 7.17066 4.23479 7.875 3.59027C8.31593 3.18687 8.89672 2.99773 9.37109 3.10785Z" stroke="#00D281" stroke-width="1.5"/>
<path d="M14.6504 2.25488C15.0671 2.21942 15.5256 2.3654 15.8975 2.64062L16.0508 2.7666C16.7474 3.39563 17.2017 4.48747 17.2773 5.43555C17.3786 6.70642 16.8743 8.15888 15.9307 8.81641C15.4312 9.16419 14.7205 9.13569 14.1777 8.73242C13.7873 8.44226 13.4946 7.98645 13.3301 7.45801C13.1225 6.79119 13.0824 6.04075 13.1025 5.25098C13.1197 4.58205 13.2257 3.80383 13.4971 3.20117C13.7589 2.61983 14.1181 2.30023 14.6504 2.25488Z" stroke="#00D281" stroke-width="1.5"/>
</svg>
