<svg width="18" height="19" viewBox="0 0 18 19" fill="none" xmlns="http://www.w3.org/2000/svg">
<path d="M7.84078 17.0479C8.51307 17.6317 9.48693 17.6317 10.1592 17.0479C12.1484 15.3207 16 11.5266 16 8.04348C16 4.15347 12.866 1 9 1C5.13401 1 2 4.15347 2 8.04348C2 11.5266 5.85162 15.3207 7.84078 17.0479Z" fill="#9C9C9C"/>
<path d="M11.2364 7.75014C11.2364 8.99278 10.2353 10.0001 9.00029 10.0001C7.76532 10.0001 6.76417 8.99278 6.76417 7.75014C6.76417 6.5075 7.76532 5.50014 9.00029 5.50014C10.2353 5.50014 11.2364 6.5075 11.2364 7.75014Z" fill="#9C9C9C"/>
<path d="M7.84078 17.0479C8.51307 17.6317 9.48693 17.6317 10.1592 17.0479C12.1484 15.3207 16 11.5266 16 8.04348C16 4.15347 12.866 1 9 1C5.13401 1 2 4.15347 2 8.04348C2 11.5266 5.85162 15.3207 7.84078 17.0479Z" stroke="white" stroke-width="1.2"/>
<path d="M11.2364 7.75014C11.2364 8.99278 10.2353 10.0001 9.00029 10.0001C7.76532 10.0001 6.76417 8.99278 6.76417 7.75014C6.76417 6.5075 7.76532 5.50014 9.00029 5.50014C10.2353 5.50014 11.2364 6.5075 11.2364 7.75014Z" stroke="white" stroke-width="1.2"/>
</svg>
