<svg width="225" height="218" viewBox="0 0 225 218" fill="none" xmlns="http://www.w3.org/2000/svg">
<ellipse cx="121.502" cy="213.81" rx="103.5" ry="3.50509" fill="#D9D9D9"/>
<path d="M76.3242 176.986H177.891C175.741 168.727 173.157 158.866 170.366 148.363H84.113L76.3242 176.986Z" fill="#39BA28"/>
<path d="M70.0332 200.498H183.957C183.957 200.498 181.557 191.073 177.891 176.986H76.3242C72.5253 191.074 70.0332 200.498 70.0332 200.498Z" fill="#B2F0A6"/>
<path d="M91.3567 122.281H163.353C160.951 113.468 158.535 104.74 156.224 96.6025H98.6974C96.3221 104.744 93.8334 113.471 91.3567 122.281Z" fill="#39BA28"/>
<path fill-rule="evenodd" clip-rule="evenodd" d="M128.11 46.0664C121.421 46.0664 115.544 48.2627 112.503 54.2454C111.843 55.5438 110.997 57.6435 110.002 60.4019L150.987 78.6137C147.353 66.5123 144.34 57.4741 142.603 54.2454C139.596 48.6566 134.799 46.0664 128.11 46.0664ZM154.227 89.6297L107.218 68.5991C104.767 76.1441 101.831 85.8636 98.6974 96.6025H156.224C155.548 94.2236 154.882 91.8951 154.227 89.6297ZM84.113 148.363C86.433 139.919 88.8889 131.059 91.3567 122.281H163.353C165.745 131.057 168.122 139.917 170.366 148.363H84.113Z" fill="#B2F0A6"/>
<path d="M150.987 78.6137L110.002 60.4019C109.171 62.7034 108.236 65.4635 107.218 68.5991L154.227 89.6297C153.107 85.7517 152.022 82.0586 150.987 78.6137Z" fill="#28941C"/>
<rect x="39.0039" y="199.289" width="178" height="12.0175" rx="6.00873" fill="#28941C"/>
<path d="M96.148 48.518C97.3316 45.8264 100.472 44.6063 103.162 45.7928L179.477 79.4489C182.168 80.6354 183.389 83.7791 182.205 86.4706C181.022 89.1621 177.882 90.3822 175.191 89.1958L98.8761 55.5396C96.1859 54.3532 94.9645 51.2095 96.148 48.518Z" fill="#D7F7D0"/>
<path d="M160.241 19.5864C179.478 28.0706 188.969 48.8286 181.44 65.9511C181.072 66.9126 180.657 67.8393 180.203 68.7324L180.212 68.7363L176.152 77.9699L106.487 47.2467L110.547 38.0131L110.567 38.0218C110.914 37.0784 111.315 36.1455 111.774 35.2275C119.304 18.1049 141.003 11.1024 160.241 19.5864Z" fill="#D7F7D0"/>
<path d="M151.766 19.3541C152.77 17.4158 155.106 16.5925 157.103 17.4734L163.405 20.2524C165.402 21.1333 166.373 23.415 165.623 25.4651L150.545 66.6726L131.592 58.314L151.766 19.3541Z" fill="#B2F0A6"/>
<path d="M145.179 51.7917C145.404 51.8662 145.633 51.975 145.817 52.1256C145.986 52.2646 146.128 52.4379 146.238 52.6273C146.467 53.0218 146.566 53.4769 146.644 53.9266C146.722 54.3763 146.782 54.8336 146.942 55.2612C147.04 55.5218 147.174 55.7698 147.297 56.0202C147.419 56.2708 147.531 56.5247 147.583 56.7976C147.709 57.4532 147.449 58.1667 146.937 58.5945C146.425 59.0221 145.683 59.1504 145.055 58.9274C144.582 58.7595 144.195 58.4191 143.785 58.1277C143.247 57.7447 142.645 57.4353 141.999 57.2993C141.775 57.2524 141.545 57.2263 141.32 57.1903C141.094 57.1544 140.871 57.1092 140.659 57.0243C139.922 56.7289 139.418 55.9375 139.444 55.1424C139.468 54.409 139.933 53.7147 140.586 53.385L140.586 53.3841L140.587 53.3854L140.587 53.3836C140.642 53.3563 140.697 53.3314 140.754 53.3093C140.906 53.2502 141.064 53.2099 141.222 53.1707C141.381 53.1316 141.54 53.0941 141.695 53.0425C141.994 52.9425 142.27 52.7913 142.539 52.6261C142.809 52.461 143.072 52.2812 143.345 52.1244C143.7 51.9206 144.092 51.7528 144.502 51.7123C144.731 51.6898 144.961 51.7194 145.179 51.7917Z" fill="#39BA28" stroke="white" stroke-width="0.00412815"/>
<path d="M140.642 48.2432C141.066 48.1012 141.427 48.1955 141.71 48.4177C141.994 48.64 142.2 48.9901 142.314 49.3602C142.442 49.777 142.433 50.1199 142.42 50.3942C142.402 50.7654 142.352 51.1502 142.207 51.4947C142.021 51.9346 141.646 52.3348 141.156 52.4008C140.688 52.4636 140.206 52.2932 139.866 51.9662C139.446 51.5631 139.365 50.9911 139.401 50.4875C139.436 49.9843 139.587 49.5493 139.632 49.4194C139.738 49.1105 139.875 48.9094 139.959 48.8003C140.106 48.6096 140.3 48.3581 140.642 48.2432Z" fill="#39BA28" stroke="white" stroke-width="0.00412815"/>
<path d="M150.398 52.1961C150.676 52.2542 150.928 52.3952 151.077 52.646C151.201 52.8572 151.229 53.1126 151.219 53.3583C151.209 53.6234 151.157 53.8819 151.071 54.1268C150.798 54.8986 150.178 55.5324 149.418 55.8313C148.921 56.0266 148.433 55.8977 148.087 55.5943C147.741 55.2907 147.537 54.813 147.608 54.3137C147.669 53.8763 147.903 53.4764 148.205 53.1543C148.577 52.7574 149.038 52.3992 149.565 52.2391C149.817 52.1625 150.12 52.1382 150.398 52.1961Z" fill="#39BA28" stroke="white" stroke-width="0.00412815"/>
<path d="M144.763 46.2819C145.196 46.1337 145.715 46.1578 146.091 46.4376C146.424 46.6854 146.574 47.0937 146.607 47.4962C146.656 48.1112 146.439 48.6891 146.17 49.23C145.913 49.747 145.606 50.2896 145.083 50.5755C144.371 50.9645 143.392 50.7434 143.035 49.9822C142.996 49.8989 142.964 49.8119 142.941 49.7228C142.758 49.0243 142.912 48.1856 143.204 47.6253C143.459 47.1352 143.969 46.6428 144.524 46.3796L144.763 46.2819ZM144.763 46.2819L144.763 46.2797L144.766 46.2808L144.763 46.2819Z" fill="#39BA28" stroke="white" stroke-width="0.00412815"/>
<path d="M149.024 47.1598C149.422 47.2948 149.749 47.6231 149.921 48.0034C150.204 48.6316 150.181 49.4489 149.97 50.0624C149.692 50.8696 148.981 51.6897 148.115 51.8631C147.554 51.9752 146.999 51.68 146.719 51.1903C146.52 50.8425 146.462 50.4285 146.505 50.0337C146.558 49.5519 146.737 49.0841 146.941 48.6468C147.119 48.2657 147.39 47.8092 147.741 47.4904C148.092 47.1716 148.524 46.9905 149.024 47.1598Z" fill="#39BA28" stroke="white" stroke-width="0.00412815"/>
<path d="M141.698 54.8648C141.736 55.158 142.016 55.5728 142.494 55.7815C143.091 56.0421 144.204 55.7691 144.598 55.3256C144.97 54.9071 144.971 54.2794 144.404 54.0318C143.838 53.7843 143.357 54.1076 143.286 54.7523C143.227 55.2838 143.588 56.2593 144.314 56.5763C144.894 56.83 145.258 56.6808 145.596 56.5674" fill="#39BA28"/>
<path d="M141.698 54.8648C141.736 55.158 142.016 55.5728 142.494 55.7815C143.091 56.0421 144.204 55.7691 144.598 55.3256C144.97 54.9071 144.971 54.2794 144.404 54.0318C143.838 53.7843 143.357 54.1076 143.286 54.7523C143.227 55.2838 143.588 56.2593 144.314 56.5763C144.894 56.83 145.258 56.6808 145.596 56.5674" stroke="white" stroke-width="0.507184" stroke-linecap="round"/>
<path d="M17.5672 214.936C16.5927 213.245 17.172 211.083 18.861 210.107L66.789 182.395C68.478 181.419 70.6372 181.997 71.6117 183.688C72.5862 185.378 72.0069 187.54 70.3178 188.516L22.3899 216.228C20.7009 217.204 18.5416 216.626 17.5672 214.936Z" fill="#D7F7D0"/>
<path d="M27.2418 169.236C39.323 162.25 54.1422 165.304 60.3416 176.057C60.7111 176.632 61.0427 177.218 61.3418 177.812L61.3511 177.806L64.6941 183.605L20.9436 208.901L17.6006 203.103L17.6116 203.096C17.2435 202.54 16.9015 201.96 16.5911 201.353C10.392 190.6 15.1607 176.221 27.2418 169.236Z" fill="#D7F7D0"/>
<path d="M24.3737 174.852C23.4057 172.895 24.1232 170.521 26.0129 169.429L27.7101 168.447C29.5998 167.355 32.0114 167.919 33.2194 169.737L48.6093 192.897L36.7066 199.779L24.3737 174.852Z" fill="#B2F0A6"/>
<path d="M38.2271 189.014C38.3535 188.928 38.4993 188.852 38.6485 188.817C38.7862 188.785 38.9318 188.78 39.0721 188.798C39.364 188.835 39.6369 188.962 39.898 189.099C40.159 189.235 40.4168 189.384 40.6989 189.47C40.8709 189.522 41.0509 189.55 41.2275 189.586C41.4041 189.621 41.5779 189.663 41.7382 189.743C42.1236 189.936 42.3874 190.35 42.4058 190.78C42.424 191.211 42.1987 191.643 41.8375 191.878C41.5656 192.055 41.2387 192.12 40.9282 192.216C40.5202 192.342 40.1255 192.529 39.8017 192.808C39.6896 192.905 39.5862 193.012 39.479 193.114C39.3718 193.216 39.2607 193.313 39.134 193.388C38.6928 193.651 38.0896 193.598 37.6922 193.273C37.3256 192.973 37.1508 192.462 37.2383 191.997L37.2396 191.998L37.2392 191.997C37.2465 191.958 37.2556 191.919 37.2666 191.881C37.2959 191.78 37.3369 191.683 37.379 191.586C37.4212 191.49 37.4647 191.393 37.499 191.293C37.5654 191.1 37.5967 190.899 37.6178 190.696C37.6389 190.493 37.6501 190.288 37.677 190.086C37.7121 189.823 37.7805 189.556 37.9211 189.33C37.9993 189.203 38.1046 189.097 38.2271 189.014Z" fill="#39BA28" stroke="white" stroke-width="0.00298735"/>
<path d="M34.6261 189.95C34.7198 189.677 34.9099 189.528 35.135 189.47C35.3604 189.412 35.6216 189.443 35.8563 189.53C36.12 189.628 36.2918 189.767 36.4272 189.881C36.6107 190.036 36.7889 190.213 36.9084 190.423C37.0611 190.691 37.1183 191.04 36.9593 191.318C36.8077 191.583 36.5307 191.764 36.2292 191.81C35.8581 191.867 35.5335 191.684 35.2893 191.468C35.0454 191.253 34.882 191.005 34.8327 190.931C34.716 190.755 34.6668 190.605 34.6439 190.519C34.6037 190.369 34.5504 190.171 34.6261 189.95Z" fill="#39BA28" stroke="white" stroke-width="0.00298735"/>
<path d="M40.4843 186.494C40.6232 186.375 40.7939 186.3 40.9805 186.322C41.1379 186.341 41.2802 186.428 41.4025 186.529C41.5343 186.639 41.6466 186.766 41.7381 186.907C42.0266 187.35 42.1086 187.917 41.9632 188.425C41.8682 188.756 41.61 188.956 41.3187 189.014C41.0271 189.073 40.7017 188.99 40.4733 188.758C40.2732 188.555 40.1607 188.278 40.1142 187.996C40.0571 187.649 40.0534 187.272 40.178 186.939C40.2378 186.779 40.3454 186.614 40.4843 186.494Z" fill="#39BA28" stroke="white" stroke-width="0.00298735"/>
<path d="M35.2392 187.068C35.3331 186.788 35.5497 186.531 35.8409 186.447C36.0985 186.374 36.3667 186.457 36.5856 186.598C36.9203 186.815 37.1322 187.153 37.3039 187.503C37.4681 187.838 37.6252 188.21 37.5662 188.591C37.4856 189.109 36.987 189.524 36.4567 189.409C36.3988 189.396 36.342 189.378 36.2874 189.355C35.8576 189.175 35.4879 188.767 35.3151 188.397C35.1423 188.028 35.0995 187.485 35.2392 187.068Z" fill="#39BA28" stroke="white" stroke-width="0.00298735"/>
<path d="M37.3621 185.227C37.5875 185.076 37.883 185.036 38.1451 185.097L38.1461 185.098L38.1465 185.097C38.5802 185.198 38.9903 185.532 39.222 185.881C39.5266 186.34 39.6673 187.027 39.416 187.54C39.2532 187.871 38.8844 188.041 38.5234 187.992C38.2668 187.958 38.032 187.825 37.8464 187.647C37.6202 187.431 37.4499 187.156 37.3058 186.88C37.1803 186.639 37.0532 186.321 37.0276 186.016C37.0022 185.71 37.079 185.417 37.3621 185.227Z" fill="#39BA28" stroke="white" stroke-width="0.00298735"/>
<path d="M38.4339 192.008C38.5991 192.104 38.9219 192.123 39.2167 191.959C39.5848 191.755 39.8823 191.076 39.8097 190.7C39.7411 190.345 39.4196 190.098 39.07 190.291C38.7204 190.485 38.6972 190.859 38.9999 191.149C39.2495 191.387 39.8915 191.585 40.3393 191.337C40.6975 191.138 40.764 190.893 40.8384 190.675" fill="#39BA28"/>
<path d="M38.4339 192.008C38.5991 192.104 38.9219 192.123 39.2167 191.959C39.5848 191.755 39.8823 191.076 39.8097 190.7C39.7411 190.345 39.4196 190.098 39.07 190.291C38.7204 190.485 38.6972 190.859 38.9999 191.149C39.2495 191.387 39.8915 191.585 40.3393 191.337C40.6975 191.138 40.764 190.893 40.8384 190.675" stroke="white" stroke-width="0.367026" stroke-linecap="round"/>
</svg>
