<svg width="19" height="19" viewBox="0 0 19 19" fill="none" xmlns="http://www.w3.org/2000/svg">
<path d="M16.9723 5.01428H12.3438" stroke="#9C9C9C" stroke-width="1.16883" stroke-miterlimit="10" stroke-linecap="round" stroke-linejoin="round"/>
<path d="M4.62868 5.01428H1.54297" stroke="#9C9C9C" stroke-width="1.16883" stroke-miterlimit="10" stroke-linecap="round" stroke-linejoin="round"/>
<path d="M7.71367 7.71427C9.20484 7.71427 10.4137 6.50544 10.4137 5.01427C10.4137 3.5231 9.20484 2.31427 7.71367 2.31427C6.2225 2.31427 5.01367 3.5231 5.01367 5.01427C5.01367 6.50544 6.2225 7.71427 7.71367 7.71427Z" stroke="#9C9C9C" stroke-width="1.16883" stroke-miterlimit="10" stroke-linecap="round" stroke-linejoin="round"/>
<path d="M16.9705 13.5H13.8848" stroke="#9C9C9C" stroke-width="1.16883" stroke-miterlimit="10" stroke-linecap="round" stroke-linejoin="round"/>
<path d="M6.17154 13.5H1.54297" stroke="#9C9C9C" stroke-width="1.16883" stroke-miterlimit="10" stroke-linecap="round" stroke-linejoin="round"/>
<path d="M10.7996 16.2C12.2908 16.2 13.4996 14.9912 13.4996 13.5C13.4996 12.0088 12.2908 10.8 10.7996 10.8C9.30844 10.8 8.09961 12.0088 8.09961 13.5C8.09961 14.9912 9.30844 16.2 10.7996 16.2Z" stroke="#9C9C9C" stroke-width="1.16883" stroke-miterlimit="10" stroke-linecap="round" stroke-linejoin="round"/>
</svg>
