<svg width="24" height="24" viewBox="0 0 24 24" fill="none" xmlns="http://www.w3.org/2000/svg">
<path d="M11 5.15C11 5.56421 11.3358 5.9 11.75 5.9C12.1642 5.9 12.5 5.56421 12.5 5.15H11.75H11ZM12.5 0.75C12.5 0.335786 12.1642 0 11.75 0C11.3358 0 11 0.335786 11 0.75H11.75H12.5ZM11 22.75C11 23.1642 11.3358 23.5 11.75 23.5C12.1642 23.5 12.5 23.1642 12.5 22.75H11.75H11ZM12.5 18.35C12.5 17.9358 12.1642 17.6 11.75 17.6C11.3358 17.6 11 17.9358 11 18.35H11.75H12.5ZM18.35 11C17.9358 11 17.6 11.3358 17.6 11.75C17.6 12.1642 17.9358 12.5 18.35 12.5V11.75V11ZM22.75 12.5C23.1642 12.5 23.5 12.1642 23.5 11.75C23.5 11.3358 23.1642 11 22.75 11V11.75V12.5ZM0.75 11C0.335786 11 0 11.3358 0 11.75C0 12.1642 0.335786 12.5 0.75 12.5V11.75V11ZM5.15 12.5C5.56421 12.5 5.9 12.1642 5.9 11.75C5.9 11.3358 5.56421 11 5.15 11V11.75V12.5ZM20.55 11.7499H19.8C19.8 16.1958 16.1959 19.7999 11.75 19.7999V20.5499V21.2999C17.0243 21.2999 21.3 17.0243 21.3 11.7499H20.55ZM11.75 20.5499V19.7999C7.30411 19.7999 3.7 16.1958 3.7 11.7499H2.95H2.2C2.2 17.0243 6.47568 21.2999 11.75 21.2999V20.5499ZM2.95 11.7499H3.7C3.7 7.30404 7.30411 3.69994 11.75 3.69994V2.94994V2.19994C6.47568 2.19994 2.2 6.47562 2.2 11.7499H2.95ZM11.75 2.94994V3.69994C16.1959 3.69994 19.8 7.30404 19.8 11.7499H20.55H21.3C21.3 6.47562 17.0243 2.19994 11.75 2.19994V2.94994ZM11.75 5.15H12.5V0.75H11.75H11V5.15H11.75ZM11.75 22.75H12.5V18.35H11.75H11V22.75H11.75ZM18.35 11.75V12.5H22.75V11.75V11H18.35V11.75ZM0.75 11.75V12.5H5.15V11.75V11H0.75V11.75ZM15.05 11.75H14.3C14.3 13.1583 13.1583 14.3 11.75 14.3V15.05V15.8C13.9868 15.8 15.8 13.9868 15.8 11.75H15.05ZM11.75 15.05V14.3C10.3417 14.3 9.2 13.1583 9.2 11.75H8.45H7.7C7.7 13.9868 9.51325 15.8 11.75 15.8V15.05ZM8.45 11.75H9.2C9.2 10.3417 10.3417 9.2 11.75 9.2V8.45V7.7C9.51325 7.7 7.7 9.51325 7.7 11.75H8.45ZM11.75 8.45V9.2C13.1583 9.2 14.3 10.3417 14.3 11.75H15.05H15.8C15.8 9.51325 13.9868 7.7 11.75 7.7V8.45Z" fill="#171717"/>
</svg>
