<svg width="18" height="18" viewBox="0 0 18 18" fill="none" xmlns="http://www.w3.org/2000/svg">
<path d="M9.00078 6.98399V9.3374C9.00078 9.49016 9.06147 9.63667 9.16949 9.74469L10.4408 11.016M1.80078 5.25599V4.67999C1.80078 3.08941 3.0902 1.79999 4.68078 1.79999H5.25678M12.7448 1.79999L13.3208 1.79999C14.9114 1.79999 16.2008 3.08941 16.2008 4.67999V5.25599M4.39278 14.184L2.37678 16.2M15.6248 16.2L13.6088 14.184M15.3368 9.57599C15.3368 13.0753 12.5001 15.912 9.00078 15.912C5.5015 15.912 2.66478 13.0753 2.66478 9.57599C2.66478 6.07671 5.5015 3.23999 9.00078 3.23999C12.5001 3.23999 15.3368 6.07671 15.3368 9.57599Z" stroke="#9C9C9C" stroke-width="1.3" stroke-linecap="round"/>
</svg>
