<svg width="21" height="20" viewBox="0 0 21 20" fill="none" xmlns="http://www.w3.org/2000/svg">
<path d="M7.25977 1.51074C8.50996 0.542199 10.5587 0.491028 11.8594 1.40234H11.8604L17.6201 5.43262C18.0487 5.73275 18.4687 6.23647 18.7822 6.83691C19.0959 7.4377 19.2695 8.07157 19.2695 8.59766V15.3779C19.2694 17.5135 17.5359 19.2478 15.4004 19.248H4.62012C2.48658 19.248 0.750229 17.5059 0.75 15.3682V8.46777C0.75 7.98112 0.906358 7.37975 1.19238 6.79883C1.47819 6.21836 1.86134 5.72289 2.25098 5.41895L7.25879 1.50977L7.25977 1.51074ZM10.0098 11.498C9.18566 11.4982 8.50977 12.1739 8.50977 12.998V15.998C8.50993 16.822 9.18576 17.4979 10.0098 17.498C10.8339 17.498 11.5096 16.8221 11.5098 15.998V12.998C11.5098 12.1738 10.834 11.498 10.0098 11.498Z" stroke="#9C9C9C" stroke-width="1.5"/>
</svg>
